<svg width="46" height="46" viewBox="0 0 46 46" fill="none" xmlns="http://www.w3.org/2000/svg">
  <path d="M11 19V14C11 10.6863 13.6863 8 17 8H29C32.3137 8 35 10.6863 35 14V19" stroke="black" stroke-width="2.8" stroke-linecap="round" stroke-linejoin="round"/>
  <path d="M9 19H37C38.1046 19 39 19.8954 39 21V34C39 35.1046 38.1046 36 37 36H9C7.89543 36 7 35.1046 7 34V21C7 19.8954 7.89543 19 9 19Z" stroke="black" stroke-width="2.8" stroke-linecap="round" stroke-linejoin="round"/>
  <path d="M23 27C24.6569 27 26 25.6569 26 24C26 22.3431 24.6569 21 23 21C21.3431 21 20 22.3431 20 24C20 25.6569 21.3431 27 23 27Z" stroke="black" stroke-width="2.8" stroke-linecap="round" stroke-linejoin="round"/>
  <path d="M23 27V30" stroke="black" stroke-width="2.8" stroke-linecap="round" stroke-linejoin="round"/>
</svg>